<svg width="16" height="16" viewBox="0 0 16 16" fill="none" xmlns="http://www.w3.org/2000/svg">
<path d="M7.5 2.5V5.5M11.5 7.5V5.5M11.5 7.5V9.5M11.5 7.5C11.5 7.5 9.5 5.5 7.5 5.5M11.5 7.5C11.5 7.5 9.5 9.5 7.5 9.5M3.5 7.5V9.5M3.5 7.5V5.5M3.5 7.5C3.5 7.5 5.5 5.5 7.5 5.5M3.5 7.5C3.5 7.5 5.5 9.5 7.5 9.5M7.5 12.5V9.5M7.5 5.5V7.5V9.5" stroke="#4D4A45" stroke-linecap="round" stroke-linejoin="round"/>
<path d="M14.5 7.5C14.5 11.366 11.366 14.5 7.5 14.5C3.63401 14.5 0.5 11.366 0.5 7.5C0.5 3.63401 3.63401 0.5 7.5 0.5C11.366 0.5 14.5 3.63401 14.5 7.5Z" stroke="#4D4A45"/>
</svg>
