<svg width="25" height="24" viewBox="0 0 25 24" fill="none" xmlns="http://www.w3.org/2000/svg">
<path d="M2.75 12.75C2.75 9 5 6.75 8.75 6.75M2.75 12.75C2.75 16.5 5 18.75 8.75 18.75M2.75 12.75H5.75M8.75 6.75C12.5 6.75 14.75 9 14.75 12.75M8.75 6.75V5.25M8.75 6.75V9.75M14.75 12.75C14.75 16.5 12.5 18.75 8.75 18.75M14.75 12.75H11.75M8.75 18.75V15.75M8.75 18.75V20.25" stroke="#4D4A45" stroke-linecap="round" stroke-linejoin="round"/>
<path d="M14.75 6.75049C17.1314 7.49457 18.5 9.82545 18.5 12.7501C18.5 15.6748 17.1314 18.0064 14.75 18.7505" stroke="#4D4A45" stroke-linecap="round" stroke-linejoin="round"/>
<path d="M18.5 6.75049C20.8814 7.49457 22.25 9.82545 22.25 12.7501C22.25 15.6748 20.8814 18.0064 18.5 18.7505" stroke="#4D4A45" stroke-linecap="round" stroke-linejoin="round"/>
</svg>
