<svg width="16" height="16" viewBox="0 0 16 16" fill="none" xmlns="http://www.w3.org/2000/svg">
<path d="M7.5 7.5V5.5V3.5M7.5 7.5V9.5V11.5M7.5 7.5V11.5M7.5 7.5V3.5M7.5 7.5H3.5M7.5 7.5H11.5M7.5 3.5H8.5M7.5 3.5H6.5M11.5 7.5V6.5M11.5 7.5V8.5M3.5 7.5V8.5M3.5 7.5V6.5M7.5 11.5H6.5M7.5 11.5H8.5" stroke="#4D4A45" stroke-linecap="round" stroke-linejoin="round"/>
<path d="M14.5 3.5C14.5 1.5 13.5 0.5 11.5 0.5H3.5C1.5 0.5 0.5 1.5 0.5 3.5V11.5C0.5 13.5 1.5 14.5 3.5 14.5H11.5C13.5 14.5 14.5 13.5 14.5 11.5V3.5Z" stroke="#4D4A45" stroke-linecap="round" stroke-linejoin="round"/>
</svg>
