<svg width="25" height="24" viewBox="0 0 25 24" fill="none" xmlns="http://www.w3.org/2000/svg">
<path d="M5.74979 6.75C7.99979 6.75 8.74979 8.25 8.74979 8.25C8.74979 8.25 9.49979 6.75 11.7498 6.75C13.9998 6.75 15.4998 9 14.7498 12C13.9998 15 8.74979 20.25 8.74979 20.25C8.74979 20.25 3.49951 15 2.74979 12C2.00007 9 3.49979 6.75 5.74979 6.75Z" stroke="#4D4A45" stroke-linecap="round" stroke-linejoin="round"/>
<path d="M12.5 20.2502C12.5 20.2502 17.75 15.0002 18.5 12.0002C19.0658 9.73712 18.3511 7.90081 17 7.13525" stroke="#4D4A45" stroke-linecap="round" stroke-linejoin="round"/>
<path d="M16.25 20.2499C16.25 20.2499 21.5 14.9999 22.25 11.9999C22.8408 9.63654 22.0353 7.73864 20.5668 7.03955" stroke="#4D4A45" stroke-linecap="round" stroke-linejoin="round"/>
</svg>
