<svg width="16" height="16" viewBox="0 0 16 16" fill="none" xmlns="http://www.w3.org/2000/svg">
<g clip-path="url(#clip0_845_5)">
<path d="M13.7886 2.12153C12.7279 1.06087 11.3137 0.353748 10.2531 1.41441C9.8015 1.86598 9.15767 2.50981 8.48528 3.1822M13.7886 2.12153C14.8493 3.18219 15.5564 4.59639 14.4957 5.65705C13.4351 6.71771 11.3137 8.83906 10.253 9.89971C9.19239 10.9604 7.77818 10.2533 6.71751 9.19261M13.7886 2.12153C14.8493 3.18219 12.7279 1.06087 13.7886 2.12153Z" stroke="#4D4A45" stroke-linecap="round"/>
<path d="M9.1924 6.71772C8.13174 5.65706 6.71754 4.94994 5.65688 6.0106C4.59622 7.07126 2.47487 9.19261 1.41421 10.2533C0.353558 11.3139 1.06065 12.7281 2.12132 13.7888M2.12132 13.7888C3.18198 14.8495 1.06065 12.7281 2.12132 13.7888ZM2.12132 13.7888C3.18198 14.8495 4.5962 15.5566 5.65685 14.4959C6.18718 13.9656 6.98268 13.1701 7.77817 12.3746" stroke="#4D4A45" stroke-linecap="round"/>
</g>
<defs>
<clipPath id="clip0_845_5">
<rect width="16" height="16" fill="white"/>
</clipPath>
</defs>
</svg>
