<svg width="16" height="16" viewBox="0 0 16 16" fill="none" xmlns="http://www.w3.org/2000/svg">
<path fill-rule="evenodd" clip-rule="evenodd" d="M8.69574 0.672729C8.30805 0.297241 7.69281 0.297241 7.30512 0.672729L6.37445 1.57312C6.15277 1.78748 5.84418 1.88806 5.53852 1.8446L4.25629 1.66345C3.72211 1.58777 3.22406 1.9491 3.13129 2.48083L2.90766 3.75671C2.87641 3.9325 2.79926 4.0946 2.68695 4.22742C2.6059 4.32458 2.50629 4.40613 2.39106 4.46716L1.24652 5.0741C0.769962 5.32703 0.579533 5.91248 0.816837 6.39685L1.38617 7.56091C1.4682 7.72839 1.50043 7.91345 1.48285 8.0946C1.47113 8.21277 1.43891 8.32947 1.38617 8.43884L0.816837 9.60291C0.579533 10.0873 0.769962 10.6727 1.24652 10.9257L2.39106 11.5326C2.66352 11.6771 2.85395 11.9393 2.90766 12.243L3.13129 13.5189C3.18988 13.8553 3.41059 14.1234 3.70063 14.2557C3.8686 14.3329 4.06 14.3641 4.25629 14.3363L5.53852 14.1552C5.84418 14.1117 6.15277 14.2123 6.37445 14.4266L7.30512 15.327C7.69281 15.7025 8.30805 15.7025 8.69574 15.327L9.62641 14.4266C9.77094 14.287 9.95258 14.1957 10.1459 14.161C10.2495 14.1425 10.3559 14.14 10.4623 14.1552L11.7446 14.3363C12.2788 14.412 12.7768 14.0507 12.8696 13.5189L13.0932 12.243C13.1469 11.9393 13.3373 11.6771 13.6098 11.5326L14.7543 10.9257C15.2309 10.6727 15.4213 10.0873 15.184 9.60291L14.6147 8.43884C14.5375 8.28064 14.5043 8.10681 14.5151 7.93494C14.5239 7.80652 14.5571 7.67957 14.6147 7.56091L15.184 6.39685C15.4213 5.91248 15.2309 5.32703 14.7543 5.0741L13.6098 4.46716C13.3373 4.32263 13.1469 4.06042 13.0932 3.75671L12.8696 2.48083C12.7768 1.9491 12.2788 1.58777 11.7446 1.66345L10.4623 1.8446C10.3393 1.86218 10.2163 1.85632 10.0991 1.82947C9.92328 1.78894 9.75922 1.70154 9.62641 1.57312L8.69574 0.672729ZM11.3754 4.43542L13.0639 6.1239C12.8266 6.08972 12.6137 6.10974 12.4272 6.18347C12.3217 6.21863 12.2123 6.27576 12.0981 6.35583C12.0092 6.41785 11.9184 6.49304 11.8246 6.58191L7.58246 10.8246C7.37348 11.0453 7.23481 11.2518 7.16645 11.4442C7.10883 11.5985 7.0893 11.7719 7.10981 11.9628L7.12445 12.0638L3.47602 8.41492L4.2309 6.70935C4.26508 7.11658 4.40375 7.53259 4.64692 7.95691C4.88422 8.37537 5.19281 8.77429 5.57172 9.1532C5.685 9.27771 5.83735 9.42468 6.02973 9.5946C6.22797 9.75867 6.42524 9.91101 6.62348 10.0526L10.9594 5.71667C11.0698 5.60681 11.1596 5.49597 11.2289 5.38416C11.2846 5.2948 11.3286 5.20496 11.3588 5.11414C11.4262 4.91052 11.4321 4.68445 11.3754 4.43542Z" fill="#D9D9D9"/>
</svg>
